<svg width="1416" height="779" fill="none" xmlns="http://www.w3.org/2000/svg"><path d="M2.236 148.38v590.187c0 20.82 16.877 37.697 37.697 37.697H637.48a37.699 37.699 0 0027.181-11.576l38.608-40.174a34.172 34.172 0 0124.636-10.492h348.835c10.65 0 20.69 4.964 27.15 13.426l25.98 34.003a37.698 37.698 0 0029.96 14.813h140.9c10.79 0 21.07-4.624 28.22-12.703l75.34-85.06a37.72 37.72 0 009.47-24.994V174.49a37.69 37.69 0 00-11.04-26.655l-86.31-86.32a37.703 37.703 0 00-26.66-11.041H554.004a34.167 34.167 0 01-20.05-6.501l-13.341-9.668a37.695 37.695 0 00-22.12-7.172h-188.89c-9.53 0-18.627-3.98-25.094-10.98l-1.668-1.804a37.697 37.697 0 00-27.686-12.113H136.852a37.699 37.699 0 00-28.109 12.577L11.825 123.26a37.698 37.698 0 00-9.59 25.12z" fill="#0BFDA2" fill-opacity=".1" stroke="#03FFA1" stroke-width="3.529"/></svg>