<svg width="1056" height="512" fill="none" xmlns="http://www.w3.org/2000/svg"><g opacity=".5"><path fill="url(#paint0_linear_3_3471)" fill-opacity=".35" d="M0 0h1056v512H0z"/><g opacity=".25"><mask id="a" style="mask-type:alpha" maskUnits="userSpaceOnUse" x="1" y="0" width="1055" height="510"><path fill="#C4C4C4" d="M1 0h1055v510H1z"/></mask><g mask="url(#a)" fill="#03FFA1"><path d="M15.536-259.026h.363V677.18h-.363zm21.805 0h.363V677.18h-.363zm21.804 0h.363V677.18h-.363zm21.806 0h.363V677.18h-.363zm21.805 0h.363V677.18h-.363zm21.804 0h.363V677.18h-.363zm21.805 0h.363V677.18h-.363zm21.805 0h.363V677.18h-.363zm21.805 0h.363V677.18h-.363zm21.805 0h.363V677.18h-.363zm21.805 0h.363V677.18h-.363zm21.805 0h.363V677.18h-.363zm21.804 0h.363V677.18h-.363zm21.805 0h.363V677.18h-.363zm21.806 0h.363V677.18h-.363zm21.804 0h.363V677.18h-.363zm21.805 0h.363V677.18h-.363zm21.805 0h.363V677.18h-.363zm21.805 0h.363V677.18h-.363zm21.805 0h.363V677.18h-.363zm22.17 0h.363V677.18h-.363zm22.17 0h.363V677.18h-.363zm22.17 0h.363V677.18h-.363zm22.17 0h.363V677.18h-.363zm22.17-.001h.363v936.206h-.363zm22.17 0h.363v936.206h-.363zm22.17 0h.363v936.206h-.363zm22.169 0h.363v936.206h-.363zm22.17 0h.363v936.206h-.363zm22.17 0h.363v936.206h-.363zm22.17 0h.363v936.206h-.363zm22.17 0h.363v936.206h-.363zm22.17-.001h.363v936.206h-.363zm22.17 0h.363v936.206h-.363zm22.17 0h.363v936.206h-.363zm22.17 0h.363v936.206h-.363zm22.17 0h.363v936.206h-.363zm22.17 0h.363v936.206h-.363zm22.17 0h.363v936.206h-.363zm22.17 0h.363v936.206h-.363zm22.169-.001h.363v936.206h-.363zm22.17 0h.363v936.206h-.363zm22.17 0h.363v936.206h-.363zm22.17 0h.363v936.206h-.363zm22.17 0h.363v936.206h-.363zm22.173 0h.363v936.206h-.363zm22.17 0h.363v936.206h-.363zm22.17 0h.363v936.206h-.363z"/><path d="M-24 15.5V15h1431v.5zm0 15.5v-.5h1431v.5zm0 15v-.5h1431v.5zm0 15v-.5h1431v.5zm0 15v-.5h1431v.5zm0 15.5V91h1431v.5zm0 15v-.5h1431v.5zm0 15v-.5h1431v.5zm0 15.5v-.5h1431v.5zm0 15v-.5h1431v.5zm0 15.5v-.5h1431v.5zm0 15v-.5h1431v.5zm0 15v-.5h1431v.5zm0 14.5v-.5h1431v.5zm0 15v-.5h1431v.5zm0 15v-.5h1431v.5zm0 16.5v-.5h1431v.5zm0 14.5v-.5h1431v.5zm0 14.5v-.5h1431v.5zm0 15.5v-.5h1431v.5zm0 15v-.5h1431v.5zm0 16v-.5h1431v.5zm0 15v-.5h1431v.5zm0 14.5v-.5h1431v.5zm0 15.5v-.5h1431v.5zm0 15v-.5h1431v.5zm0 15v-.5h1431v.5zm0 15v-.5h1431v.5zm0 16v-.5h1431v.5zm0 15v-.5h1431v.5zm0 15v-.5h1431v.5zm0 15v-.5h1431v.5zm0 15v-.5h1431v.5z"/></g></g></g><defs><linearGradient id="paint0_linear_3_3471" x1="528" y1="0" x2="528" y2="512" gradientUnits="userSpaceOnUse"><stop stop-color="#0BFDA2" stop-opacity=".7"/><stop offset=".217" stop-color="#0BFDA2" stop-opacity=".466"/><stop offset=".79" stop-color="#0BFDA2" stop-opacity=".45"/><stop offset="1" stop-color="#0BFDA2" stop-opacity=".7"/></linearGradient></defs></svg>