<svg width="554" height="164" fill="none" xmlns="http://www.w3.org/2000/svg"><path d="M533.808 162.5H19.388c-9.857 0-17.888-8.051-17.888-17.905V19.377C1.5 9.52 9.528 1.5 19.389 1.5h514.419C543.695 1.5 552 9.552 552 19.377v125.218c0 9.824-8.308 17.905-18.192 17.905z" fill="url(#paint0_linear_214_18985)" fill-opacity=".35" stroke="#3C8F70" stroke-width="3"/><mask id="a" style="mask-type:alpha" maskUnits="userSpaceOnUse" x="3" y="3" width="547" height="158"><path d="M549.532 144.599c0 8.676-7.028 15.703-15.72 15.703H19.389c-8.688 0-15.74-7.027-15.74-15.703V19.373c0-8.672 7.052-15.724 15.74-15.724h514.419c8.696 0 15.72 7.052 15.72 15.724l.004 125.226z" fill="#C4C4C4"/></mask><g mask="url(#a)"><g opacity=".5"><g opacity=".25"><mask id="b" style="mask-type:alpha" maskUnits="userSpaceOnUse" x="-4" y="-33" width="420" height="351"><path transform="rotate(90 416 -33)" fill="#C4C4C4" d="M416-33h351v420H416z"/></mask><g mask="url(#b)" fill="#03FFA1"><path d="M627.957 20.081v.285h-768.949v-.285zm0 17.249v.285h-768.949v-.285zm0 18.07v.284h-768.949V55.4zm0 17.247v.285H-140.99v-.285zm0 17.248v.285h-768.949v-.284zm0 18.07v.285h-768.949v-.285zm0 17.249v.285h-768.949v-.285zm0 17.248v.285h-768.949v-.285z"/><path d="M396.137-53.351h.201v403.02h-.201zm-17.248 0h.201v403.02h-.201zm-18.071 0h.201v403.02h-.201zm-17.248 0h.201v403.02h-.201zm-17.248 0h.201v403.02h-.201zm-17.248 0h.201v403.02h-.201zm-17.248 0h.201v403.02h-.201zm-17.249 0h.201v403.02h-.201zm-18.069 0h.201v403.02h-.201zm-17.248 0h.201v403.02h-.201zm-17.248 0h.201v403.02h-.201zm-16.428 0h.201v403.02h-.201zm-18.069 0h.201v403.02h-.201zm-17.248 0h.201v403.02h-.201zm-18.07 0h.201v403.02h-.201zm-17.249 0h.201v403.02h-.201zm-17.247 0h.201v403.02h-.201zm-17.249 0h.201v403.02h-.201zm-17.248 0h.201v403.02h-.201zm-17.248 0h.201v403.02h-.201zm-17.249 0h.201v403.02h-.201zm-17.248 0h.201v403.02h-.201zm-18.069 0h.201v403.02h-.201z"/></g></g></g><g opacity=".5"><g opacity=".25"><mask id="c" style="mask-type:alpha" maskUnits="userSpaceOnUse" x="416" y="-33" width="402" height="351"><path transform="rotate(90 818 -33)" fill="#C4C4C4" d="M818-33h351v402H818z"/></mask><g mask="url(#c)" fill="#03FFA1"><path d="M1030.62 20.081v.285H261.671v-.285zm0 17.249v.285H261.671v-.285zm0 18.07v.284H261.671V55.4zm0 17.248v.285H261.671v-.285zm0 17.247v.286H261.671v-.285zm0 18.07v.285H261.671v-.285zm0 17.249v.285H261.671v-.285zm0 17.248v.285H261.671v-.285z"/><path d="M537.606-53.351h.201v403.02h-.201zm-17.247 0h.201v403.02h-.201zm-17.249 0h.201v403.02h-.201zm-17.248 0h.201v403.02h-.201zm-17.248 0h.201v403.02h-.201zm-17.249 0h.201v403.02h-.201zm-17.248 0h.201v403.02h-.201zm-18.069 0h.201v403.02h-.201z"/></g></g></g></g><defs><linearGradient id="paint0_linear_214_18985" x1="276.75" y1="0" x2="276.75" y2="164" gradientUnits="userSpaceOnUse"><stop stop-color="#0BFDA2" stop-opacity=".7"/><stop offset=".217" stop-color="#0BFDA2" stop-opacity=".466"/><stop offset=".79" stop-color="#0BFDA2" stop-opacity=".45"/><stop offset="1" stop-color="#0BFDA2" stop-opacity=".7"/></linearGradient></defs></svg>