<svg width="352" height="636" fill="none" xmlns="http://www.w3.org/2000/svg"><g opacity=".5"><path fill="url(#paint0_linear_3_3360)" fill-opacity=".35" d="M0 0h352v636H0z"/><g opacity=".25"><mask id="a" style="mask-type:alpha" maskUnits="userSpaceOnUse" x="1" y="0" width="351" height="636"><path fill="#C4C4C4" d="M1 0h351v636H1z"/></mask><g mask="url(#a)" fill="#03FFA1"><path d="M36.961-212.729h.285V723h-.285zm17.248 0h.285V723h-.285zm17.249 0h.285V723h-.285zm18.069 0h.285V723h-.285zm17.248 0h.285V723h-.285zm17.248 0h.285V723h-.285zm18.071 0h.285V723h-.285zm17.248 0h.285V723h-.285zm17.248 0h.285V723h-.285zm18.069 0h.285V723h-.285zm17.249 0h.285V723h-.285zm18.07 0h.285V723h-.285zm17.248 0h.285V723h-.285zm17.248 0h.285V723h-.285zm18.07 0h.285V723h-.285zm17.248 0h.285V723h-.285zm17.248 0h.285V723h-.285zm18.069 0h.285V723h-.285zm-316.217 0h.285V723h-.285z"/><path d="M-19.222 19.092v-.2h403.02v.2zm0 17.248v-.2h403.02v.2zm0 18.07v-.2h403.02v.2zm0 17.248v-.2h403.02v.2zm-.001 17.249v-.201h403.02v.2zm0 17.248v-.2h403.02v.2zm0 17.248v-.2h403.02v.2zm0 17.248v-.2h403.02v.2zm0 18.07v-.2h403.02v.2zm0 17.249v-.202h403.02v.201zm0 17.247v-.2h403.02v.2zm0 16.427v-.2h403.02v.2zm0 18.07v-.2h403.02v.2zm0 17.248v-.2h403.02v.2zm0 18.069v-.2h403.02v.2zm0 17.249v-.2h403.02v.2zm0 17.248v-.2h403.02v.2zm0 17.248v-.2h403.02v.2zm0 17.249v-.2h403.02v.2zm0 17.248v-.2h403.02v.2zm0 17.248v-.2h403.02v.2zm0 17.249v-.202h403.02v.201zm0 18.07v-.202h403.02v.201zm0 17.361v-.2h403.02v.2zm0 17.361v-.2h403.02v.2zm0 17.362v-.2h403.02v.2zm0 17.362v-.2h403.02v.2zm0 17.362v-.2h403.02v.2zm0 17.362v-.2h403.02v.2zm0 17.362v-.2h403.02v.2zm0 17.361v-.2h403.02v.2zm0 17.362v-.2h403.02v.2zm0 17.362v-.2h403.02v.2zm0 17.363v-.202h403.02v.201zm0 17.361v-.2h403.02v.2zm0 17.361v-.2h403.02v.2z"/></g></g></g><defs><linearGradient id="paint0_linear_3_3360" x1="176" y1="0" x2="176" y2="636" gradientUnits="userSpaceOnUse"><stop stop-color="#0BFDA2" stop-opacity=".7"/><stop offset=".217" stop-color="#0BFDA2" stop-opacity=".466"/><stop offset=".79" stop-color="#0BFDA2" stop-opacity=".45"/><stop offset="1" stop-color="#0BFDA2" stop-opacity=".7"/></linearGradient></defs></svg>